<svg xmlns="http://www.w3.org/2000/svg" xmlns:xlink="http://www.w3.org/1999/xlink" width="500" zoomAndPan="magnify" viewBox="0 0 375 374.999991" height="500" preserveAspectRatio="xMidYMid meet" version="1.0"><defs><g/><clipPath id="cc63f350a7"><path d="M 58.976562 65.222656 L 303.476562 65.222656 L 303.476562 309.722656 L 58.976562 309.722656 Z M 58.976562 65.222656 " clip-rule="nonzero"/></clipPath><clipPath id="3f0042fb20"><path d="M 10.832031 188.289062 L 361.832031 188.289062 L 361.832031 227.289062 L 10.832031 227.289062 Z M 10.832031 188.289062 " clip-rule="nonzero"/></clipPath><clipPath id="1225d653b9"><path d="M 53.320312 60.523438 L 309.070312 60.523438 L 309.070312 316.273438 L 53.320312 316.273438 Z M 53.320312 60.523438 " clip-rule="nonzero"/></clipPath></defs><rect x="-37.5" width="450" fill="#ffffff" y="-37.499999" height="449.999989" fill-opacity="1"/><rect x="-37.5" width="450" fill="#ffffff" y="-37.499999" height="449.999989" fill-opacity="1"/><rect x="-37.5" width="450" fill="#ffffff" y="-37.499999" height="449.999989" fill-opacity="1"/><g clip-path="url(#cc63f350a7)"><path fill="#000000" d="M 181.226562 65.222656 C 113.710938 65.222656 58.976562 119.953125 58.976562 187.472656 C 58.976562 254.988281 113.710938 309.722656 181.226562 309.722656 C 248.742188 309.722656 303.476562 254.988281 303.476562 187.472656 C 303.476562 119.953125 248.742188 65.222656 181.226562 65.222656 " fill-opacity="1" fill-rule="nonzero"/></g><g clip-path="url(#3f0042fb20)"><path fill="#ffffff" d="M 10.832031 188.289062 L 361.832031 188.289062 L 361.832031 227.289062 L 10.832031 227.289062 L 10.832031 188.289062 " fill-opacity="1" fill-rule="nonzero"/></g><g clip-path="url(#1225d653b9)"><path fill="#000000" d="M 181.195312 316.273438 C 110.707031 316.273438 53.320312 258.886719 53.320312 188.398438 C 53.320312 117.910156 110.707031 60.523438 181.195312 60.523438 C 251.683594 60.523438 309.070312 117.910156 309.070312 188.398438 C 309.070312 258.886719 251.683594 316.273438 181.195312 316.273438 Z M 181.195312 62.414062 C 111.714844 62.414062 55.210938 118.917969 55.210938 188.398438 C 55.210938 257.878906 111.714844 314.382812 181.195312 314.382812 C 250.675781 314.382812 307.183594 257.878906 307.183594 188.398438 C 307.183594 118.917969 250.675781 62.414062 181.195312 62.414062 Z M 181.195312 62.414062 " fill-opacity="1" fill-rule="nonzero"/></g><g fill="#ffffff" fill-opacity="1"><g transform="translate(74.161785, 245.512816)"><g><path d="M 92.800781 2.164062 C 117.03125 2.164062 137.582031 -3.894531 147.75 -9.519531 L 151.210938 -37.640625 L 148.832031 -37.855469 C 140.394531 -14.492188 122.222656 -2.164062 98.859375 -2.164062 C 53.863281 -2.164062 29.203125 -41.101562 29.417969 -81.769531 C 29.417969 -125.898438 56.027344 -148.832031 90.421875 -148.832031 C 116.164062 -148.832031 136.714844 -135.632812 145.152344 -115.949219 L 147.316406 -116.382812 L 146.449219 -142.125 C 138.015625 -147.53125 116.382812 -152.941406 97.777344 -152.941406 C 46.941406 -152.941406 11.25 -118.761719 11.25 -72.683594 C 11.25 -25.527344 43.046875 2.164062 92.800781 2.164062 Z M 92.800781 2.164062 "/></g></g></g><g fill="#ffffff" fill-opacity="1"><g transform="translate(151.005131, 285.881325)"><g><path d="M 3.929688 0 L 91.535156 0 L 94.90625 -28.078125 L 93.035156 -28.078125 C 85.546875 -9.171875 78.058594 -2.996094 54.847656 -2.996094 L 21.152344 -2.996094 L 93.78125 -128.597656 L 93.78125 -131.03125 L 10.296875 -131.03125 L 7.300781 -104.828125 L 9.359375 -104.828125 C 16.097656 -122.046875 24.710938 -128.039062 43.613281 -128.039062 L 76 -128.039062 L 3.929688 -2.433594 Z M 3.929688 0 "/></g></g></g><g fill="#2b2b2b" fill-opacity="1"><g transform="translate(151.558588, 206.081734)"><g><path d="M 8.265625 -5.070312 C 7.394531 -2.867188 5.738281 -2.050781 4.441406 -2.050781 C 3.261719 -2.050781 2.511719 -2.730469 2.511719 -3.601562 C 2.511719 -3.792969 2.542969 -3.996094 2.613281 -4.21875 L 3.65625 -7.171875 C 3.808594 -7.582031 4.148438 -7.839844 4.421875 -7.839844 C 4.765625 -7.839844 4.933594 -7.632812 4.933594 -7.34375 C 4.933594 -7.15625 4.867188 -6.949219 4.746094 -6.710938 C 4.664062 -6.539062 4.609375 -6.371094 4.609375 -6.199219 C 4.609375 -5.601562 5.175781 -5.140625 5.773438 -5.140625 C 6.265625 -5.140625 6.796875 -5.449219 7.105469 -6.234375 C 7.273438 -6.695312 7.34375 -7.105469 7.34375 -7.496094 C 7.34375 -9.101562 6.011719 -10.023438 4.542969 -10.023438 C 3.195312 -10.023438 1.742188 -9.238281 1.128906 -7.445312 L 0.152344 -4.578125 C 0.015625 -4.167969 -0.0507812 -3.757812 -0.0507812 -3.382812 C -0.0507812 -1.417969 1.65625 0 4.167969 0 C 6.695312 0 9.1875 -1.433594 10.28125 -4.542969 C 10.332031 -4.664062 10.347656 -4.78125 10.347656 -4.882812 C 10.347656 -5.429688 9.820312 -5.773438 9.289062 -5.773438 C 8.863281 -5.773438 8.4375 -5.566406 8.265625 -5.070312 Z M 8.265625 -5.070312 "/></g></g></g><g fill="#2b2b2b" fill-opacity="1"><g transform="translate(159.190767, 206.081734)"><g><path d="M 7.222656 -3.570312 C 7.222656 -3.550781 7.222656 -3.824219 7.15625 -4.148438 C 7.273438 -4.234375 7.394531 -4.371094 7.496094 -4.527344 C 7.789062 -4.953125 8.300781 -6.4375 8.300781 -7.121094 C 8.300781 -8.863281 6.863281 -10.023438 5.019531 -10.023438 C 3.414062 -10.023438 1.894531 -9.136719 1.347656 -7.617188 L 0.101562 -4.097656 C -0.0507812 -3.671875 -0.121094 -3.246094 -0.121094 -2.867188 C -0.121094 -1.074219 1.417969 0 3.160156 0 C 4.492188 0 5.703125 -0.425781 6.421875 -1.65625 C 6.730469 -1.570312 7.085938 -1.519531 7.445312 -1.519531 C 9.460938 -1.519531 11.050781 -2.953125 11.628906 -4.746094 C 11.679688 -4.933594 11.714844 -5.105469 11.714844 -5.261719 C 11.714844 -5.890625 11.253906 -6.25 10.757812 -6.25 C 10.296875 -6.25 9.820312 -5.976562 9.632812 -5.34375 C 9.257812 -4.285156 8.46875 -3.550781 7.460938 -3.550781 C 7.394531 -3.550781 7.292969 -3.550781 7.222656 -3.570312 Z M 5.636719 -6.199219 C 5.585938 -6.046875 5.53125 -5.910156 5.515625 -5.773438 C 4.578125 -5.875 3.738281 -5.105469 3.738281 -4.082031 C 3.757812 -3.5 4.046875 -3.195312 4.371094 -2.921875 C 4.148438 -2.324219 3.65625 -2.03125 3.125 -2.03125 C 2.460938 -2.03125 2.289062 -2.441406 2.289062 -2.851562 C 2.289062 -3.175781 2.375 -3.484375 2.441406 -3.65625 L 3.65625 -7.121094 C 3.859375 -7.683594 4.457031 -8.007812 4.988281 -8.007812 C 5.515625 -8.007812 5.859375 -7.652344 5.859375 -7.257812 C 5.859375 -6.949219 5.753906 -6.558594 5.636719 -6.199219 Z M 5.636719 -6.199219 "/></g></g></g><g fill="#2b2b2b" fill-opacity="1"><g transform="translate(168.103517, 206.081734)"><g><path d="M 9.527344 -4.917969 C 8.777344 -2.867188 7.839844 -2.03125 7.035156 -2.03125 C 6.730469 -2.03125 6.558594 -2.1875 6.558594 -2.476562 C 6.558594 -2.597656 6.59375 -2.730469 6.644531 -2.902344 L 7.976562 -6.695312 C 8.09375 -7.035156 8.164062 -7.34375 8.164062 -7.632812 C 8.164062 -9 7 -10.023438 5.636719 -10.023438 C 4.96875 -10.023438 4.441406 -9.871094 3.996094 -9.546875 C 3.894531 -9.855469 3.464844 -10.023438 3.003906 -10.023438 C 2.527344 -10.023438 2.066406 -9.800781 1.894531 -9.324219 L -0.957031 -1.347656 C -1.007812 -1.195312 -1.023438 -1.058594 -1.023438 -0.921875 C -1.023438 -0.289062 -0.53125 0.0351562 0.015625 0.0351562 C 0.613281 0.0351562 1.296875 -0.339844 1.554688 -1.109375 C 2.152344 -2.765625 2.972656 -5.105469 3.550781 -6.746094 C 4.011719 -7.597656 4.609375 -8.007812 5.089844 -8.007812 C 5.398438 -8.007812 5.617188 -7.804688 5.617188 -7.480469 C 5.617188 -7.359375 5.585938 -7.207031 5.53125 -7.054688 L 4.285156 -3.535156 C 4.148438 -3.140625 4.0625 -2.765625 4.0625 -2.40625 C 4.0625 -0.835938 5.363281 0 6.8125 0 C 8.554688 0 10.417969 -1.179688 11.59375 -4.507812 C 11.648438 -4.644531 11.679688 -4.78125 11.679688 -4.902344 C 11.679688 -5.449219 11.1875 -5.738281 10.671875 -5.738281 C 10.210938 -5.738281 9.699219 -5.480469 9.527344 -4.917969 Z M 9.527344 -4.917969 "/></g></g></g><g fill="#2b2b2b" fill-opacity="1"><g transform="translate(177.06749, 206.081734)"><g><path d="M 1.671875 -7.992188 L -2.886719 4.851562 C -2.953125 5.039062 -2.988281 5.226562 -2.988281 5.398438 C -2.988281 6.113281 -2.390625 6.574219 -1.757812 6.574219 C -1.230469 6.574219 -0.683594 6.25 -0.410156 5.449219 L 4.304688 -7.992188 L 5.550781 -8.007812 C 6.351562 -8.027344 6.730469 -8.605469 6.730469 -9.101562 C 6.730469 -9.582031 6.371094 -10.023438 5.738281 -10.023438 L 5.039062 -10.023438 L 5.996094 -12.707031 C 6.128906 -13.117188 6.457031 -13.371094 6.746094 -13.371094 C 7.105469 -13.371094 7.242188 -13.167969 7.242188 -12.875 C 7.242188 -12.773438 7.222656 -12.671875 7.191406 -12.550781 C 7.105469 -12.382812 7.070312 -12.226562 7.070312 -12.074219 C 7.070312 -11.476562 7.652344 -11.066406 8.25 -11.066406 C 8.792969 -11.066406 9.359375 -11.40625 9.546875 -12.246094 C 9.597656 -12.484375 9.632812 -12.707031 9.632812 -12.925781 C 9.632812 -14.429688 8.46875 -15.558594 6.984375 -15.558594 C 5.53125 -15.558594 4.082031 -14.738281 3.449219 -12.960938 L 2.40625 -10.023438 L 1.964844 -10.023438 C 0.90625 -10.023438 0.460938 -9.425781 0.460938 -8.878906 C 0.460938 -8.402344 0.785156 -7.992188 1.316406 -7.992188 Z M 1.671875 -7.992188 "/></g></g></g><g fill="#2b2b2b" fill-opacity="1"><g transform="translate(182.531243, 206.081734)"><g><path d="M 8.640625 -4.816406 C 7.890625 -2.835938 6.097656 -2.03125 4.644531 -2.03125 C 3.398438 -2.03125 2.613281 -2.628906 2.613281 -3.414062 C 2.613281 -3.570312 2.628906 -3.722656 2.699219 -3.894531 L 2.835938 -4.21875 C 3.332031 -3.910156 3.945312 -3.707031 4.628906 -3.707031 C 6.183594 -3.707031 7.546875 -4.679688 8.007812 -6.214844 C 8.09375 -6.539062 8.144531 -6.863281 8.144531 -7.15625 C 8.144531 -8.777344 6.863281 -10.023438 4.933594 -10.023438 C 3.414062 -10.023438 1.929688 -9.136719 1.332031 -7.429688 L 0.324219 -4.507812 C 0.1875 -4.097656 0.101562 -3.6875 0.101562 -3.296875 C 0.101562 -1.265625 2.015625 0 4.507812 0 C 6.882812 0 9.582031 -1.160156 10.707031 -4.421875 C 10.757812 -4.558594 10.777344 -4.679688 10.777344 -4.78125 C 10.777344 -5.3125 10.296875 -5.601562 9.785156 -5.601562 C 9.308594 -5.601562 8.792969 -5.34375 8.640625 -4.816406 Z M 4.882812 -8.007812 C 5.363281 -8.007812 5.667969 -7.617188 5.667969 -7.121094 C 5.667969 -6.984375 5.652344 -6.847656 5.601562 -6.710938 C 5.429688 -6.148438 4.917969 -5.941406 4.40625 -5.941406 C 4.082031 -5.941406 3.757812 -6.011719 3.519531 -6.148438 L 3.875 -7.171875 C 4.0625 -7.703125 4.492188 -8.007812 4.882812 -8.007812 Z M 4.882812 -8.007812 "/></g></g></g><g fill="#2b2b2b" fill-opacity="1"><g transform="translate(190.624424, 206.081734)"><g><path d="M 5.414062 -3.84375 C 6.558594 -4.78125 7.394531 -5.804688 7.394531 -7.273438 C 7.394531 -8.792969 6.078125 -10.023438 4.167969 -10.023438 L 1.914062 -10.023438 C 1.160156 -10.023438 0.800781 -9.445312 0.800781 -8.847656 C 0.800781 -8.265625 1.160156 -7.667969 1.84375 -7.667969 L 3.996094 -7.667969 C 4.59375 -7.667969 4.796875 -7.429688 4.796875 -7.105469 C 4.796875 -6.539062 4.183594 -5.773438 3.773438 -5.429688 C 3.347656 -5.804688 2.714844 -5.996094 2.152344 -5.996094 C 2.015625 -5.996094 1.878906 -5.976562 1.742188 -5.960938 C 0.445312 -5.738281 0.0859375 -4.664062 0.0859375 -4.046875 C 0.0859375 -2.9375 1.058594 -2.425781 1.980469 -2.425781 C 2.304688 -2.425781 2.613281 -2.492188 2.886719 -2.613281 C 3.109375 -2.269531 3.195312 -1.792969 3.195312 -1.367188 C 3.195312 -1.023438 3.140625 -0.71875 3.058594 -0.496094 C 2.527344 -0.273438 1.484375 -0.0664062 0.835938 0.0859375 C -0.972656 0.5625 -2.441406 1.128906 -2.902344 2.613281 C -2.988281 2.902344 -3.023438 3.160156 -3.023438 3.414062 C -3.023438 5.070312 -1.484375 6.164062 0.1875 6.164062 C 2.542969 6.164062 5.003906 3.277344 5.515625 0.820312 C 7.976562 0.0507812 9.90625 -0.992188 11.082031 -4.578125 C 11.132812 -4.714844 11.152344 -4.851562 11.152344 -4.96875 C 11.152344 -5.550781 10.707031 -5.890625 10.195312 -5.890625 C 9.734375 -5.890625 9.238281 -5.601562 9 -4.933594 C 8.402344 -3.246094 7.394531 -2.203125 6.027344 -1.671875 C 6.046875 -1.792969 6.046875 -1.894531 6.046875 -2 C 6.046875 -2.851562 5.753906 -3.449219 5.414062 -3.84375 Z M 2.40625 1.792969 C 1.707031 3.519531 0.648438 4.011719 0.136719 4.011719 C -0.257812 4.011719 -0.445312 3.773438 -0.445312 3.464844 C -0.445312 3.363281 -0.410156 3.226562 -0.359375 3.109375 C -0.121094 2.511719 1.28125 2.082031 2.40625 1.792969 Z M 2.40625 1.792969 "/></g></g></g><g fill="#2b2b2b" fill-opacity="1"><g transform="translate(199.042022, 206.081734)"><g><path d="M 5.414062 -3.84375 C 6.558594 -4.78125 7.394531 -5.804688 7.394531 -7.273438 C 7.394531 -8.792969 6.078125 -10.023438 4.167969 -10.023438 L 1.914062 -10.023438 C 1.160156 -10.023438 0.800781 -9.445312 0.800781 -8.847656 C 0.800781 -8.265625 1.160156 -7.667969 1.84375 -7.667969 L 3.996094 -7.667969 C 4.59375 -7.667969 4.796875 -7.429688 4.796875 -7.105469 C 4.796875 -6.539062 4.183594 -5.773438 3.773438 -5.429688 C 3.347656 -5.804688 2.714844 -5.996094 2.152344 -5.996094 C 2.015625 -5.996094 1.878906 -5.976562 1.742188 -5.960938 C 0.445312 -5.738281 0.0859375 -4.664062 0.0859375 -4.046875 C 0.0859375 -2.9375 1.058594 -2.425781 1.980469 -2.425781 C 2.304688 -2.425781 2.613281 -2.492188 2.886719 -2.613281 C 3.109375 -2.269531 3.195312 -1.792969 3.195312 -1.367188 C 3.195312 -1.023438 3.140625 -0.71875 3.058594 -0.496094 C 2.527344 -0.273438 1.484375 -0.0664062 0.835938 0.0859375 C -0.972656 0.5625 -2.441406 1.128906 -2.902344 2.613281 C -2.988281 2.902344 -3.023438 3.160156 -3.023438 3.414062 C -3.023438 5.070312 -1.484375 6.164062 0.1875 6.164062 C 2.542969 6.164062 5.003906 3.277344 5.515625 0.820312 C 7.976562 0.0507812 9.90625 -0.992188 11.082031 -4.578125 C 11.132812 -4.714844 11.152344 -4.851562 11.152344 -4.96875 C 11.152344 -5.550781 10.707031 -5.890625 10.195312 -5.890625 C 9.734375 -5.890625 9.238281 -5.601562 9 -4.933594 C 8.402344 -3.246094 7.394531 -2.203125 6.027344 -1.671875 C 6.046875 -1.792969 6.046875 -1.894531 6.046875 -2 C 6.046875 -2.851562 5.753906 -3.449219 5.414062 -3.84375 Z M 2.40625 1.792969 C 1.707031 3.519531 0.648438 4.011719 0.136719 4.011719 C -0.257812 4.011719 -0.445312 3.773438 -0.445312 3.464844 C -0.445312 3.363281 -0.410156 3.226562 -0.359375 3.109375 C -0.121094 2.511719 1.28125 2.082031 2.40625 1.792969 Z M 2.40625 1.792969 "/></g></g></g></svg>